<?xml version="1.0" encoding="UTF-8"?>
<svg version="1.1" xmlns="http://www.w3.org/2000/svg" width="435" height="131">
<path d="M0 0 C11.58575201 9.81662211 19.77411403 23.24287015 21.69140625 38.484375 C22.71120191 53.56397642 20.87164804 68.02400187 11.69140625 80.484375 C11.06621094 81.38671875 10.44101563 82.2890625 9.796875 83.21875 C1.2067676 94.75722451 -11.98712945 103.15282808 -26.30859375 105.484375 C-38.40078449 106.70222811 -50.04596475 106.33286103 -61.30859375 101.484375 C-62.03691406 101.195625 -62.76523437 100.906875 -63.515625 100.609375 C-76.10439404 95.0474731 -87.17609774 83.36340587 -92.46875 70.7109375 C-98.05231071 55.78141674 -98.70041113 38.72920234 -92.8671875 23.7578125 C-88.02629086 13.5907163 -81.87359073 4.83256619 -72.62109375 -1.640625 C-71.69635254 -2.2912793 -71.69635254 -2.2912793 -70.75292969 -2.95507812 C-65.855598 -6.31164763 -61.04166276 -8.86664863 -55.30859375 -10.515625 C-54.55835938 -10.73734375 -53.808125 -10.9590625 -53.03515625 -11.1875 C-34.74684391 -15.68362994 -14.79878716 -11.73285009 0 0 Z " fill="#F6E904" transform="translate(112.30859375,17.515625)"/>
<path d="M0 0 C11.58575201 9.81662211 19.77411403 23.24287015 21.69140625 38.484375 C22.71120191 53.56397642 20.87164804 68.02400187 11.69140625 80.484375 C11.06621094 81.38671875 10.44101563 82.2890625 9.796875 83.21875 C1.2067676 94.75722451 -11.98712945 103.15282808 -26.30859375 105.484375 C-38.40078449 106.70222811 -50.04596475 106.33286103 -61.30859375 101.484375 C-62.03691406 101.195625 -62.76523437 100.906875 -63.515625 100.609375 C-76.10439404 95.0474731 -87.17609774 83.36340587 -92.46875 70.7109375 C-98.05231071 55.78141674 -98.70041113 38.72920234 -92.8671875 23.7578125 C-88.02629086 13.5907163 -81.87359073 4.83256619 -72.62109375 -1.640625 C-71.69635254 -2.2912793 -71.69635254 -2.2912793 -70.75292969 -2.95507812 C-65.855598 -6.31164763 -61.04166276 -8.86664863 -55.30859375 -10.515625 C-54.55835938 -10.73734375 -53.808125 -10.9590625 -53.03515625 -11.1875 C-34.74684391 -15.68362994 -14.79878716 -11.73285009 0 0 Z M-71.55859375 17.421875 C-80.66492061 28.15433166 -82.33411339 39.65686115 -81.51123047 53.35888672 C-80.47094158 64.27063983 -74.77270523 73.55839571 -66.73046875 80.80859375 C-54.80575913 90.02469075 -43.04356618 92.03018706 -28.30859375 90.484375 C-24.29108955 89.65090676 -20.92235744 88.41171564 -17.30859375 86.484375 C-16.53515625 86.071875 -15.76171875 85.659375 -14.96484375 85.234375 C-3.82915897 78.52245541 3.13191956 68.63922154 6.29296875 56.09765625 C8.34267523 42.65399319 6.53485919 30.79682859 -1.55859375 19.609375 C-8.9870353 10.88694686 -18.9060399 4.57306711 -30.30859375 2.484375 C-46.83521491 1.47333465 -59.94403117 5.0579858 -71.55859375 17.421875 Z " fill="#12A1D7" transform="translate(112.30859375,17.515625)"/>
<path d="M0 0 C0.13481759 2.93902349 0.23399416 5.87189559 0.3125 8.8125 C0.35439453 9.64587891 0.39628906 10.47925781 0.43945312 11.33789062 C0.4860573 13.65877848 0.47933056 15.72735169 0 18 C-2.42578125 19.96875 -2.42578125 19.96875 -5 21 C-5.495 21.556875 -5.99 22.11375 -6.5 22.6875 C-8 24 -8 24 -10.6875 24.1875 C-11.8321875 24.0946875 -11.8321875 24.0946875 -13 24 C-13 23.34 -13 22.68 -13 22 C-14.32 21.67 -15.64 21.34 -17 21 C-17 20.34 -17 19.68 -17 19 C-17.66 19 -18.32 19 -19 19 C-19.495 16.525 -19.495 16.525 -20 14 C-18.89309248 20.40593286 -17.66054831 26.71363856 -16 33 C-16.66 29.37 -17.32 25.74 -18 22 C-17.34 22 -16.68 22 -16 22 C-15.938125 22.763125 -15.87625 23.52625 -15.8125 24.3125 C-15.544375 25.199375 -15.27625 26.08625 -15 27 C-14.16210938 27.38800781 -13.32421875 27.77601562 -12.4609375 28.17578125 C-11.64882813 28.77777344 -10.83671875 29.37976563 -10 30 C-9.67306784 32.82933816 -9.6135122 35.07909544 -9.8125 37.875 C-10.08225635 42.73061433 -10.10904379 46.51434717 -8 51 C-7.6503582 53.33094534 -7.31445513 55.66404762 -7 58 C-6.67 58.33 -6.34 58.66 -6 59 C-6.11175648 60.39695604 -6.23948675 61.79264809 -6.375 63.1875 C-6.44306854 66.23113634 -6.37794356 67.53089418 -4.4453125 69.9296875 C-2.68705684 71.40549245 -0.92349376 72.74874768 1 74 C-0.32 75.65 -1.64 77.3 -3 79 C-1.68 79 -0.36 79 1 79 C1 81.97 1 84.94 1 88 C-11.88447705 88.74692621 -21.32387602 84.47047275 -31 76 C-40.84967769 65.45553177 -43.54145323 53.40781942 -43.2421875 39.38671875 C-42.71476617 27.07064729 -36.91160994 18.44316335 -28.0625 10.125 C-19.51898896 2.7964512 -11.2114126 -0.16150895 0 0 Z " fill="#FAFAFB" transform="translate(74,20)"/>
<path d="M0 0 C0 0.66 0 1.32 0 2 C0.886875 2.12375 1.77375 2.2475 2.6875 2.375 C8.28987615 5.12333547 9.75139426 10.37835352 11.70703125 16.05078125 C12.67395601 20.41549769 11.70453383 22.86296438 9.625 26.75 C5.46288914 34.87822204 6.09623135 44.06798131 6 53 C5.34 53 4.68 53 4 53 C3.67 54.32 3.34 55.64 3 57 C1.02 57.495 1.02 57.495 -1 58 C-0.67 60.31 -0.34 62.62 0 65 C-1.32 65 -2.64 65 -4 65 C-4 63.68 -4 62.36 -4 61 C-6.64 61.33 -9.28 61.66 -12 62 C-11.67 61.01 -11.34 60.02 -11 59 C-10.01 58.505 -10.01 58.505 -9 58 C-9.5053125 57.59910156 -10.010625 57.19820312 -10.53125 56.78515625 C-15.79117228 52.18272425 -15.79117228 52.18272425 -16.4296875 48.56640625 C-16.375 46.125 -16.375 46.125 -16.1484375 43.8203125 C-16.09945312 43.21960938 -16.05046875 42.61890625 -16 42 C-16.33 41.67 -16.66 41.34 -17 41 C-17.57381254 38.1668006 -18.02955837 35.32080238 -18.5 32.46875 C-18.74993507 30.06584023 -18.74993507 30.06584023 -20 29 C-20.07319621 26.30345146 -20.09242537 23.63308542 -20.0625 20.9375 C-20.05798828 20.17888672 -20.05347656 19.42027344 -20.04882812 18.63867188 C-20.0370068 16.75908129 -20.01907078 14.87953101 -20 13 C-21.32 12.34 -22.64 11.68 -24 11 C-23.67 10.01 -23.34 9.02 -23 8 C-20.18037462 8.74752859 -17.55473394 9.57664824 -15 11 C-13.5 14.1875 -13.5 14.1875 -13 17 C-9.7 16.67 -6.4 16.34 -3 16 C-3 15.01 -3 14.02 -3 13 C-1.35 12.67 0.3 12.34 2 12 C1.01 11.34 0.02 10.68 -1 10 C-1 8.68 -1 7.36 -1 6 C-1.99 6 -2.98 6 -4 6 C-3.34 4.68 -2.68 3.36 -2 2 C-2.99 1.67 -3.98 1.34 -5 1 C-2 0 -2 0 0 0 Z " fill="#B94928" transform="translate(83,37)"/>
<path d="M0 0 C2.5 1.5625 2.5 1.5625 4 3 C4.515625 2.525625 5.03125 2.05125 5.5625 1.5625 C8.75991562 -0.4871254 11.22471685 -0.80130089 15 -1 C18.49903476 -0.04571779 20.7342104 1.17096327 23 4 C24.43199672 12.05849132 22.06850804 20.2554074 20 28 C17.03 28 14.06 28 11 28 C11.33 21.73 11.66 15.46 12 9 C10.02 9 8.04 9 6 9 C4.22738492 13.03077255 3.26072729 17.00464455 2.375 21.3125 C2.11460937 22.56675781 1.85421875 23.82101563 1.5859375 25.11328125 C1.39257812 26.06589844 1.19921875 27.01851562 1 28 C-1.97 28 -4.94 28 -8 28 C-7.67 21.73 -7.34 15.46 -7 9 C-8.98 9 -10.96 9 -13 9 C-15.40276009 12.60414013 -15.90940836 16.00713045 -16.625 20.1875 C-16.7590625 20.93708984 -16.893125 21.68667969 -17.03125 22.45898438 C-17.36045419 24.30487928 -17.68106498 26.15230309 -18 28 C-21.3 28 -24.6 28 -28 28 C-27.35683247 24.08289072 -26.71000458 20.1663945 -26.0625 16.25 C-25.88009766 15.13882813 -25.69769531 14.02765625 -25.50976562 12.8828125 C-25.33251953 11.81289063 -25.15527344 10.74296875 -24.97265625 9.640625 C-24.72914429 8.16384277 -24.72914429 8.16384277 -24.48071289 6.65722656 C-24.07309473 4.40404421 -23.58953149 2.21131655 -23 0 C-22.16855469 0.01160156 -21.33710938 0.02320313 -20.48046875 0.03515625 C-18.85044922 0.04869141 -18.85044922 0.04869141 -17.1875 0.0625 C-15.56908203 0.07990234 -15.56908203 0.07990234 -13.91796875 0.09765625 C-1.36915972 -0.32231728 -1.36915972 -0.32231728 0 0 Z " fill="#CF1F2E" transform="translate(336,38)"/>
<path d="M0 0 C10.87683462 -0.83667959 21.4040694 3.45209313 30 10 C34.46159488 14.23701795 37.94172486 18.14420721 40 24 C39.34 24 38.68 24 38 24 C37.773125 24.639375 37.54625 25.27875 37.3125 25.9375 C36 28 36 28 33.75 28.9375 C29.04536814 29.04442345 25.80779291 26.53852861 22 24 C21.48828125 21.6171875 21.48828125 21.6171875 21.3125 18.875 C21.24675781 17.96492188 21.18101563 17.05484375 21.11328125 16.1171875 C21.05720703 15.06917969 21.05720703 15.06917969 21 14 C18.36 13.34 15.72 12.68 13 12 C13 14.64 13 17.28 13 20 C11.68 19.67 10.36 19.34 9 19 C9 18.34 9 17.68 9 17 C6.8614515 19.1385485 6.57344937 20.13275314 6 23 C6.99 22.34 7.98 21.68 9 21 C8.67 22.98 8.34 24.96 8 27 C9.32 27.66 10.64 28.32 12 29 C12 29.33 12 29.66 12 30 C10.35 30.33 8.7 30.66 7 31 C6.67 31.99 6.34 32.98 6 34 C1.05 34.495 1.05 34.495 -4 35 C-6 31 -6 31 -6 28 C-9.05847848 27.45627049 -11.88772805 27 -15 27 C-15.33 27 -15.66 27 -16 27 C-16 25.35 -16 23.7 -16 22 C-16.66 22 -17.32 22 -18 22 C-17.72285156 22.97839844 -17.44570313 23.95679687 -17.16015625 24.96484375 C-15.207921 31.98483098 -13.51227174 38.70012769 -13 46 C-15.06841609 42.89737586 -15.67559906 40.79414857 -16.5078125 37.1953125 C-16.77207031 36.05449219 -17.03632812 34.91367187 -17.30859375 33.73828125 C-17.57800781 32.54589844 -17.84742188 31.35351562 -18.125 30.125 C-18.40214844 28.94035156 -18.67929687 27.75570312 -18.96484375 26.53515625 C-21.17809115 16.86446443 -21.17809115 16.86446443 -21 12 C-19 14 -19 14 -18.875 16.625 C-18.91625 17.40875 -18.9575 18.1925 -19 19 C-18.34 19 -17.68 19 -17 19 C-17 19.66 -17 20.32 -17 21 C-15.68 21.33 -14.36 21.66 -13 22 C-13 22.66 -13 23.32 -13 24 C-9.535 23.505 -9.535 23.505 -6 23 C-5.67 22.01 -5.34 21.02 -5 20 C-2.9375 18.8125 -2.9375 18.8125 -1 18 C-1.020625 16.700625 -1.04125 15.40125 -1.0625 14.0625 C-1.07004972 9.30617675 -0.59887117 4.71611047 0 0 Z " fill="#F5EB0B" transform="translate(74,20)"/>
<path d="M0 0 C0.99 0 1.98 0 3 0 C6.33333333 0 9.66666667 0 13 0 C12.35683247 3.91710928 11.71000458 7.8336055 11.0625 11.75 C10.88009766 12.86117187 10.69769531 13.97234375 10.50976562 15.1171875 C10.24389648 16.72207031 10.24389648 16.72207031 9.97265625 18.359375 C9.81031494 19.34389648 9.64797363 20.32841797 9.48071289 21.34277344 C9.07309473 23.59595579 8.58953149 25.78868345 8 28 C6.85724609 27.98259766 6.85724609 27.98259766 5.69140625 27.96484375 C0.73743063 27.92155058 -4.03521964 27.92565913 -8.9375 28.6875 C-12.0074384 29.07680378 -12.94436795 29.02248955 -15.9375 27.8125 C-18.67955895 25.40281183 -19.80612109 23.32559071 -20.3359375 19.703125 C-20.43233984 13.64905811 -19.71572898 8.92021605 -16 4 C-10.32808619 -0.51438038 -7.04379642 -1.13203871 0 0 Z M-10 12 C-10.98617135 13.94285168 -10.98617135 13.94285168 -11 16 C-10.14209817 18.21771064 -10.14209817 18.21771064 -9 20 C-6.16848027 20.41809201 -6.16848027 20.41809201 -3 20 C-0.29859059 17.51185975 0.86495195 15.96784439 1.375 12.3125 C1.20063253 9.81076481 1.20063253 9.81076481 -1 8 C-5.49426038 7.29037994 -7.25584792 8.47180447 -10 12 Z " fill="#CF1F2E" transform="translate(382,38)"/>
<path d="M0 0 C3.125 1.6875 3.125 1.6875 5.125 4.6875 C5.125 6.3375 5.125 7.9875 5.125 9.6875 C1.825 9.6875 -1.475 9.6875 -4.875 9.6875 C-5.205 9.0275 -5.535 8.3675 -5.875 7.6875 C-7.195 7.6875 -8.515 7.6875 -9.875 7.6875 C-9.70584664 9.6160103 -9.70584664 9.6160103 -8.875 11.6875 C-6.9062524 13.14827222 -6.9062524 13.14827222 -4.5 14.25 C-1.46467478 15.75777556 0.94125853 17.05892231 3.125 19.6875 C4.2718907 23.3739344 4.29275433 25.21219608 3 28.875 C0.59823847 32.47764229 -1.73945859 33.90446815 -5.75 35.375 C-11.60519594 36.23605823 -15.85544964 35.99584001 -20.875 32.6875 C-23.48191129 29.29851532 -23.875 28.06015387 -23.875 23.6875 C-22.25081255 23.60659029 -20.62548255 23.54835005 -19 23.5 C-18.09507812 23.46519531 -17.19015625 23.43039063 -16.2578125 23.39453125 C-15.07832031 23.53955078 -15.07832031 23.53955078 -13.875 23.6875 C-13.215 24.6775 -12.555 25.6675 -11.875 26.6875 C-10.555 26.6875 -9.235 26.6875 -7.875 26.6875 C-8.00158395 24.74627415 -8.00158395 24.74627415 -8.875 22.6875 C-11.08424028 21.32843265 -11.08424028 21.32843265 -13.75 20.3125 C-17.21043806 18.68871791 -18.70324086 17.91324058 -21.0625 14.8125 C-22.08515109 10.87922657 -22.07960644 8.58475612 -20.875 4.6875 C-15.38647974 -1.68573696 -7.65608841 -3.05923198 0 0 Z " fill="#CF1F2E" transform="translate(160.875,31.3125)"/>
<path d="M0 0 C3.3 0 6.6 0 10 0 C9.67 3.3 9.34 6.6 9 10 C9.680625 9.649375 10.36125 9.29875 11.0625 8.9375 C14.82921081 7.73535825 17.18353141 8.02853527 21 9 C23.66676812 11.08207564 24.86203571 12.22365856 25.4609375 15.59375 C25.24568686 22.87313533 24.41886286 29.85501204 23 37 C19.7 37 16.4 37 13 37 C13.2165625 35.1128125 13.2165625 35.1128125 13.4375 33.1875 C14.03816186 27.79870505 14.52550539 22.40116209 15 17 C12.69 17.33 10.38 17.66 8 18 C7.80664062 18.78503906 7.61328125 19.57007812 7.4140625 20.37890625 C6.03346779 25.9491275 4.62611553 31.49622437 3 37 C0.03 37 -2.94 37 -6 37 C-5.44030057 28.62574949 -4.08579985 20.53553089 -2.4375 12.3125 C-2.20353516 11.12205078 -1.96957031 9.93160156 -1.72851562 8.70507812 C-1.15729936 5.8023669 -0.58104763 2.90075626 0 0 Z " fill="#CF1F2E" transform="translate(249,29)"/>
<path d="M0 0 C3.0625 2.5 3.0625 2.5 5 5 C5.33 5.33 5.66 5.66 6 6 C6.54993034 12.20786749 6.71479593 17.74804713 3 23 C-1.34609827 27.22863616 -5.50706748 28.77741674 -11.5 29.3125 C-16.4219478 28.87304038 -19.58022952 27.60907321 -22.875 23.875 C-24.88794176 18.7308155 -24.67271443 14.01814329 -22.9375 8.8125 C-20.1899455 4.82411444 -16.76041553 0.97459569 -12.0859375 -0.67578125 C-7.99138497 -1.31220046 -4.01716295 -0.97503955 0 0 Z M-12.875 9.5625 C-14.38335163 12.8305952 -14.26828688 15.44519888 -14 19 C-12.89350443 20.31534788 -12.89350443 20.31534788 -10.125 20.3125 C-6.95873171 20.32178978 -6.95873171 20.32178978 -5.1875 18.25 C-4.02455404 16.04652344 -3.23240687 14.47900664 -3 12 C-3.85790183 9.78228936 -3.85790183 9.78228936 -5 8 C-9.28158753 7.5396536 -9.28158753 7.5396536 -12.875 9.5625 Z " fill="#CF1F2D" transform="translate(301,38)"/>
<path d="M0 0 C3.0625 2.25 3.0625 2.25 5 5 C5.3125 7.8125 5.3125 7.8125 5 10 C2.03 10 -0.94 10 -4 10 C-4 9.01 -4 8.02 -4 7 C-5.65 7.33 -7.3 7.66 -9 8 C-6.17517455 10.82482545 -2.80449038 12.09200453 0.78515625 13.78125 C3 15 3 15 4 17 C4.375 19.8125 4.375 19.8125 4 23 C1.91204014 25.60994982 0.21708759 27.47259538 -2.875 28.8125 C-9.21015588 29.37148434 -13.4388786 29.05316469 -19 26 C-21.17956572 23.06232446 -21 21.81436472 -21 18 C-18.03 18 -15.06 18 -12 18 C-11.67 18.99 -11.34 19.98 -11 21 C-9.02 21 -7.04 21 -5 21 C-6.40053621 18.19892758 -7.95415046 18.18228209 -10.875 17.1875 C-14.1406867 15.92140401 -15.78562514 15.23274985 -18.1875 12.625 C-19.24106564 9.22117254 -19.15014658 7.37855559 -18 4 C-12.66415454 -1.33584546 -7.11174631 -1.84753552 0 0 Z " fill="#CF1F2D" transform="translate(416,38)"/>
<path d="M0 0 C9.24 0 18.48 0 28 0 C28 1.98 28 3.96 28 6 C27 7 27 7 24.93359375 7.09765625 C24.10988281 7.08605469 23.28617188 7.07445312 22.4375 7.0625 C21.61121094 7.05347656 20.78492188 7.04445313 19.93359375 7.03515625 C19.29550781 7.02355469 18.65742188 7.01195312 18 7 C17.87882812 7.87140625 17.75765625 8.7428125 17.6328125 9.640625 C14.48192771 32.03614458 14.48192771 32.03614458 13 35 C10.03 35 7.06 35 4 35 C4.66734773 25.52366217 6.2617156 16.32551315 8 7 C5.03 7 2.06 7 -1 7 C-0.67 4.69 -0.34 2.38 0 0 Z " fill="#CF1F2E" transform="translate(217,31)"/>
<path d="M0 0 C1.23556641 0.01740234 1.23556641 0.01740234 2.49609375 0.03515625 C3.32238281 0.04417969 4.14867187 0.05320312 5 0.0625 C5.63808594 0.07410156 6.27617187 0.08570312 6.93359375 0.09765625 C6.60359375 2.40765625 6.27359375 4.71765625 5.93359375 7.09765625 C7.91359375 7.09765625 9.89359375 7.09765625 11.93359375 7.09765625 C11.60359375 9.40765625 11.27359375 11.71765625 10.93359375 14.09765625 C8.95359375 14.75765625 6.97359375 15.41765625 4.93359375 16.09765625 C4.27359375 19.72765625 3.61359375 23.35765625 2.93359375 27.09765625 C4.58359375 27.09765625 6.23359375 27.09765625 7.93359375 27.09765625 C7.60359375 29.73765625 7.27359375 32.37765625 6.93359375 35.09765625 C-1.99315242 35.71094415 -1.99315242 35.71094415 -5.69140625 33.59765625 C-8.93955856 27.69192478 -6.80852559 21.19507394 -5.06640625 15.09765625 C-6.05640625 15.09765625 -7.04640625 15.09765625 -8.06640625 15.09765625 C-7.73640625 12.45765625 -7.40640625 9.81765625 -7.06640625 7.09765625 C-5.74640625 7.09765625 -4.42640625 7.09765625 -3.06640625 7.09765625 C-3.08703125 6.12828125 -3.10765625 5.15890625 -3.12890625 4.16015625 C-3.04694378 0.14399545 -3.04694378 0.14399545 0 0 Z " fill="#CF1F2E" transform="translate(177.06640625,30.90234375)"/>
<path d="M0 0 C0.33 0 0.66 0 1 0 C1 1.98 1 3.96 1 6 C2.423125 5.938125 2.423125 5.938125 3.875 5.875 C7 6 7 6 9 8 C9.01171875 9.98828125 9.01171875 9.98828125 8.6875 12.3125 C8.57921875 13.11171875 8.4709375 13.9109375 8.359375 14.734375 C7.9725851 17.17283307 7.54388973 19.59134546 7 22 C7.66 21.67 8.32 21.34 9 21 C8.67 22.98 8.34 24.96 8 27 C9.32 27.66 10.64 28.32 12 29 C12 29.33 12 29.66 12 30 C10.35 30.33 8.7 30.66 7 31 C6.67 31.99 6.34 32.98 6 34 C1.05 34.495 1.05 34.495 -4 35 C-6 31 -6 31 -6 28 C-9.05847848 27.45627049 -11.88772805 27 -15 27 C-15.33 27 -15.66 27 -16 27 C-16 25.35 -16 23.7 -16 22 C-16.66 22 -17.32 22 -18 22 C-17.72285156 22.97839844 -17.44570313 23.95679687 -17.16015625 24.96484375 C-15.207921 31.98483098 -13.51227174 38.70012769 -13 46 C-15.06841609 42.89737586 -15.67559906 40.79414857 -16.5078125 37.1953125 C-16.77207031 36.05449219 -17.03632812 34.91367187 -17.30859375 33.73828125 C-17.57800781 32.54589844 -17.84742188 31.35351562 -18.125 30.125 C-18.40214844 28.94035156 -18.67929687 27.75570312 -18.96484375 26.53515625 C-21.17809115 16.86446443 -21.17809115 16.86446443 -21 12 C-19 14 -19 14 -18.875 16.625 C-18.91625 17.40875 -18.9575 18.1925 -19 19 C-18.34 19 -17.68 19 -17 19 C-17 19.66 -17 20.32 -17 21 C-15.68 21.33 -14.36 21.66 -13 22 C-13 22.66 -13 23.32 -13 24 C-9.535 23.505 -9.535 23.505 -6 23 C-5.67 22.01 -5.34 21.02 -5 20 C-2.9375 18.8125 -2.9375 18.8125 -1 18 C-1.020625 16.700625 -1.04125 15.40125 -1.0625 14.0625 C-1.07004972 9.30617675 -0.59887117 4.71611047 0 0 Z " fill="#DF9659" transform="translate(74,20)"/>
<path d="M0 0 C2.81962538 0.74752859 5.44526606 1.57664824 8 3 C9.5 6.1875 9.5 6.1875 10 9 C11.98 9 13.96 9 16 9 C15.73599714 12.96542283 15.46936451 16.93065981 15.20043945 20.89575195 C15.06522213 22.89720764 14.93200456 24.8987981 14.79882812 26.90039062 C14.34159863 33.62335766 13.81506068 40.31062808 13 47 C9.15625 45.2109375 9.15625 45.2109375 7.75 43.3125 C6.73375995 40.17909319 6.93824856 37.27282621 7 34 C6.67 33.67 6.34 33.34 6 33 C5.42618746 30.1668006 4.97044163 27.32080238 4.5 24.46875 C4.25006493 22.06584023 4.25006493 22.06584023 3 21 C2.92680379 18.30345146 2.90757463 15.63308542 2.9375 12.9375 C2.94201172 12.17888672 2.94652344 11.42027344 2.95117188 10.63867188 C2.9629932 8.75908129 2.98092922 6.87953101 3 5 C1.68 4.34 0.36 3.68 -1 3 C-0.67 2.01 -0.34 1.02 0 0 Z " fill="#841E1F" transform="translate(60,45)"/>
<path d="M0 0 C1.32 0.33 2.64 0.66 4 1 C4.66 3.31 5.32 5.62 6 8 C6.66 8 7.32 8 8 8 C9.75803702 11.51607404 9.53803684 15.19939935 9 19 C8.22314245 20.67323165 7.38442674 22.31854937 6.5 23.9375 C3.46881311 29.89010935 3.65265084 35.20690987 4.09765625 41.71850586 C4.30677482 45.72007684 4.32374831 47.47859482 2.14453125 50.98828125 C-0.00233822 53.00219341 -1.11241099 53.69061546 -4 54 C-3.979375 54.804375 -3.95875 55.60875 -3.9375 56.4375 C-4 59 -4 59 -5 60 C-6.66617115 60.04063832 -8.33388095 60.042721 -10 60 C-8.515 59.505 -8.515 59.505 -7 59 C-7.33 56.69 -7.66 54.38 -8 52 C-7.360625 51.731875 -6.72125 51.46375 -6.0625 51.1875 C-3.66868314 50.11332248 -3.66868314 50.11332248 -3 47 C-2.34 47 -1.68 47 -1 47 C-1.05800781 45.68386719 -1.11601563 44.36773437 -1.17578125 43.01171875 C-1.45684002 33.75351958 -1.63340779 26.55333398 2.94140625 18.24609375 C5.02675145 13.82146832 3.74892145 10.2545252 2.24609375 5.73046875 C1.54685735 3.80165722 0.77945846 1.89781189 0 0 Z " fill="#E1CB1F" transform="translate(90,43)"/>
<path d="M0 0 C0 0.66 0 1.32 0 2 C0.886875 2.12375 1.77375 2.2475 2.6875 2.375 C8.28987615 5.12333547 9.75139426 10.37835352 11.70703125 16.05078125 C13.1054093 22.36308589 9.90325036 27.53505815 7 33 C6.34 32.67 5.68 32.34 5 32 C5 31.34 5 30.68 5 30 C3.8553125 29.9071875 3.8553125 29.9071875 2.6875 29.8125 C0 29 0 29 -1.875 26.6875 C-3.07817396 23.81325108 -3.15154588 22.82652171 -2 20 C-2 20.66 -2 21.32 -2 22 C1.96 21.505 1.96 21.505 6 21 C6 18.69 6 16.38 6 14 C3.02934491 14.34227572 3.02934491 14.34227572 0 15 C-0.33 15.66 -0.66 16.32 -1 17 C-1.66 15.68 -2.32 14.36 -3 13 C-1.35 12.67 0.3 12.34 2 12 C1.01 11.34 0.02 10.68 -1 10 C-1 8.68 -1 7.36 -1 6 C-1.99 6 -2.98 6 -4 6 C-3.34 4.68 -2.68 3.36 -2 2 C-2.99 1.67 -3.98 1.34 -5 1 C-2 0 -2 0 0 0 Z " fill="#CC6738" transform="translate(83,37)"/>
<path d="M0 0 C1.98 0 3.96 0 6 0 C6.33 1.65 6.66 3.3 7 5 C7.721875 4.175 8.44375 3.35 9.1875 2.5 C12 0 12 0 17 0 C16.34 5.28 15.68 10.56 15 16 C13.35 16 11.7 16 10 16 C10 14.35 10 12.7 10 11 C8.35 11.33 6.7 11.66 5 12 C4.67 11.01 4.34 10.02 4 9 C3.67 11.31 3.34 13.62 3 16 C1.35 16 -0.3 16 -2 16 C-1.34 10.72 -0.68 5.44 0 0 Z " fill="#3F4144" transform="translate(363,75)"/>
<path d="M0 0 C2.3125 -0.25 2.3125 -0.25 5 0 C6.8125 2 6.8125 2 8 4 C8.391875 3.34 8.78375 2.68 9.1875 2 C9.785625 1.34 10.38375 0.68 11 0 C13.61328125 -0.125 13.61328125 -0.125 16 0 C15.85936865 2.29199177 15.71234057 4.58359186 15.5625 6.875 C15.48128906 8.15117188 15.40007812 9.42734375 15.31640625 10.7421875 C15 14 15 14 14 16 C12.68 16 11.36 16 10 16 C10 14.02 10 12.04 10 10 C9.34 10.66 8.68 11.32 8 12 C5.875 11.625 5.875 11.625 4 11 C3.34 12.65 2.68 14.3 2 16 C0.68 16 -0.64 16 -2 16 C-1.85936865 13.70800823 -1.71234057 11.41640814 -1.5625 9.125 C-1.48128906 7.84882812 -1.40007812 6.57265625 -1.31640625 5.2578125 C-1 2 -1 2 0 0 Z " fill="#404144" transform="translate(192,74)"/>
<path d="M0 0 C0.66 0 1.32 0 2 0 C2.061875 0.763125 2.12375 1.52625 2.1875 2.3125 C2.455625 3.199375 2.72375 4.08625 3 5 C3.83789062 5.38800781 4.67578125 5.77601562 5.5390625 6.17578125 C6.75722656 7.07876953 6.75722656 7.07876953 8 8 C8.32693216 10.82933816 8.3864878 13.07909544 8.1875 15.875 C7.91774365 20.73061433 7.89095621 24.51434717 10 29 C10.3496418 31.33094534 10.68554487 33.66404762 11 36 C11.33 36.33 11.66 36.66 12 37 C12.07188471 39.29581781 11.99646432 41.57517069 11.9375 43.87109375 C11.85218862 46.05502216 11.85218862 46.05502216 13 48 C12.34 48 11.68 48 11 48 C11.33 50.31 11.66 52.62 12 55 C11.34 54.67 10.68 54.34 10 54 C9.23803711 51.49072266 9.23803711 51.49072266 8.52734375 48.1640625 C8.26759766 46.95363281 8.00785156 45.74320313 7.74023438 44.49609375 C7.47533203 43.21863281 7.21042969 41.94117188 6.9375 40.625 C6.66873047 39.38621094 6.39996094 38.14742187 6.12304688 36.87109375 C4.75419969 30.39211133 3.70803902 24.05483581 3.2175293 17.45214844 C2.89621478 13.83005755 2.18833667 10.37081293 1.4375 6.8125 C1.29892578 6.14669922 1.16035156 5.48089844 1.01757812 4.79492188 C0.68387723 3.19545896 0.34279182 1.59753925 0 0 Z " fill="#D9D4CE" transform="translate(56,42)"/>
<path d="M0 0 C0.33 0 0.66 0 1 0 C1 1.98 1 3.96 1 6 C2.423125 5.938125 2.423125 5.938125 3.875 5.875 C7 6 7 6 9 8 C9.01171875 9.98828125 9.01171875 9.98828125 8.6875 12.3125 C8.57921875 13.11171875 8.4709375 13.9109375 8.359375 14.734375 C7.9725851 17.17283307 7.54388973 19.59134546 7 22 C5.35 22 3.7 22 2 22 C2 23.65 2 25.3 2 27 C-1.68754757 26.50168276 -3.60490662 25.89932357 -6 23 C-5 20 -5 20 -2.9375 18.8125 C-2.298125 18.544375 -1.65875 18.27625 -1 18 C-1.020625 16.700625 -1.04125 15.40125 -1.0625 14.0625 C-1.07004972 9.30617675 -0.59887117 4.71611047 0 0 Z " fill="#E0A472" transform="translate(74,20)"/>
<path d="M0 0 C7.32740676 2.04206418 7.32740676 2.04206418 10.0625 5.9375 C11.89869359 11.44608078 11.47337215 18.89966092 8.98828125 24.12890625 C8.49908203 25.05509766 8.49908203 25.05509766 8 26 C7.61250787 28.32495277 7.27017161 30.65851268 7 33 C6.67 33 6.34 33 6 33 C5.86722656 32.21753906 5.73445313 31.43507813 5.59765625 30.62890625 C5.42105469 29.61699219 5.24445313 28.60507813 5.0625 27.5625 C4.88847656 26.55316406 4.71445313 25.54382813 4.53515625 24.50390625 C4.25248903 22.0712562 4.25248903 22.0712562 3 21 C2.92680379 18.30345146 2.90757463 15.63308542 2.9375 12.9375 C2.94201172 12.17888672 2.94652344 11.42027344 2.95117188 10.63867188 C2.9629932 8.75908129 2.98092922 6.87953101 3 5 C1.68 4.34 0.36 3.68 -1 3 C-0.67 2.01 -0.34 1.02 0 0 Z " fill="#8C3C21" transform="translate(60,45)"/>
<path d="M0 0 C1.65 0 3.3 0 5 0 C4.67 1.65 4.34 3.3 4 5 C4.78375 4.95875 5.5675 4.9175 6.375 4.875 C9 5 9 5 11 7 C11.62118682 10.99334387 11.29566536 12.5657415 9 15.9375 C5.79170971 18.14319958 5.31250591 18.26321121 1.6875 17.8125 C0.470625 17.544375 -0.74625 17.27625 -2 17 C-1.85786703 15.10388566 -1.71113093 13.20811606 -1.5625 11.3125 C-1.48128906 10.25675781 -1.40007812 9.20101562 -1.31640625 8.11328125 C-1.03548319 5.34913703 -0.59843148 2.71054259 0 0 Z M4 8 C2.70366379 9.06645115 2.70366379 9.06645115 2.9375 11.5625 C2.958125 12.366875 2.97875 13.17125 3 14 C3.99 13.67 4.98 13.34 6 13 C6.73323796 10.98491642 6.73323796 10.98491642 7 9 C6.01 8.67 5.02 8.34 4 8 Z " fill="#404245" transform="translate(244,73)"/>
<path d="M0 0 C0.33 0.66 0.66 1.32 1 2 C0.67 2.66 0.34 3.32 0 4 C-1.65 4 -3.3 4 -5 4 C-5.33 4.66 -5.66 5.32 -6 6 C-5.195625 6.226875 -4.39125 6.45375 -3.5625 6.6875 C-1 8 -1 8 0.0625 10.375 C0 13 0 13 -1.5625 15.3125 C-4.61636622 17.42671508 -6.35572485 17.39611686 -10 17 C-10.66 16.67 -11.32 16.34 -12 16 C-11.67 14.68 -11.34 13.36 -11 12 C-8.03 12.495 -8.03 12.495 -5 13 C-5 12.01 -5 11.02 -5 10 C-6.65 9.67 -8.3 9.34 -10 9 C-10.33 6.69 -10.66 4.38 -11 2 C-7.01296238 -0.93164531 -4.77545985 -1.41093132 0 0 Z " fill="#3F4144" transform="translate(149,74)"/>
<path d="M0 0 C1.65 0 3.3 0 5 0 C4.67 1.65 4.34 3.3 4 5 C4.969375 4.979375 5.93875 4.95875 6.9375 4.9375 C10 5 10 5 11 6 C11.14475933 9.8361222 11.17661508 13.32307787 10 17 C8.68 17 7.36 17 6 17 C6 14.36 6 11.72 6 9 C5.34 8.67 4.68 8.34 4 8 C3.67 10.97 3.34 13.94 3 17 C1.35 17 -0.3 17 -2 17 C-1.34 11.39 -0.68 5.78 0 0 Z " fill="#404245" transform="translate(296,74)"/>
<path d="M0 0 C1.32 0 2.64 0 4 0 C4 1.65 4 3.3 4 5 C5.98 5 7.96 5 10 5 C10 8.63 10 12.26 10 16 C8.35 16.33 6.7 16.66 5 17 C5.33 14.03 5.66 11.06 6 8 C3.82961523 8.79299706 3.82961523 8.79299706 3.3671875 10.84765625 C3.20476562 11.57855469 3.04234375 12.30945313 2.875 13.0625 C2.70742188 13.79597656 2.53984375 14.52945313 2.3671875 15.28515625 C2.24601562 15.85105469 2.12484375 16.41695312 2 17 C0.68 17 -0.64 17 -2 17 C-1.85899143 14.72886197 -1.71203245 12.45809275 -1.5625 10.1875 C-1.48128906 8.92292969 -1.40007812 7.65835938 -1.31640625 6.35546875 C-1 3 -1 3 0 0 Z " fill="#404245" transform="translate(344,74)"/>
<path d="M0 0 C0.33 0.66 0.66 1.32 1 2 C1.70125 2.268125 2.4025 2.53625 3.125 2.8125 C6.82793972 4.3419751 10.14037155 6.15652764 13 9 C13.4375 11.8125 13.4375 11.8125 13 14 C9.2576124 14.98014913 7.4449988 15.1832348 3.8125 13.6875 C1.84497749 12.5069865 -0.09085576 11.27276283 -2 10 C-2.29296875 7.8359375 -2.29296875 7.8359375 -2.1875 5.375 C-2.16042969 4.55773438 -2.13335937 3.74046875 -2.10546875 2.8984375 C-2.05326172 1.95871094 -2.05326172 1.95871094 -2 1 C-1.34 0.67 -0.68 0.34 0 0 Z " fill="#CD3F35" transform="translate(98,34)"/>
<path d="M0 0 C1.60553374 0.08039153 3.21065374 0.1772597 4.8125 0.3125 C4.67154936 1.9379308 4.52457913 3.56284051 4.375 5.1875 C4.29378906 6.09242187 4.21257812 6.99734375 4.12890625 7.9296875 C3.8125 10.3125 3.8125 10.3125 2.8125 12.3125 C0.81640625 12.796875 0.81640625 12.796875 -1.625 13.0625 C-2.82962891 13.20945312 -2.82962891 13.20945312 -4.05859375 13.359375 C-6.1875 13.3125 -6.1875 13.3125 -8.1875 11.3125 C-8.55428379 8.0114459 -8.27952796 5.61487759 -7.3125 2.4375 C-4.65995693 -0.21504307 -3.65858503 0.0051748 0 0 Z M-2.1875 3.3125 C-2.8475 4.9625 -3.5075 6.6125 -4.1875 8.3125 C-3.1975 8.6425 -2.2075 8.9725 -1.1875 9.3125 C-0.8575 7.3325 -0.5275 5.3525 -0.1875 3.3125 C-0.8475 3.3125 -1.5075 3.3125 -2.1875 3.3125 Z " fill="#3F4144" transform="translate(388.1875,78.6875)"/>
<path d="M0 0 C2.50651042 0.13020833 5.01302083 0.26041667 7.51953125 0.390625 C6.85953125 4.350625 6.19953125 8.310625 5.51953125 12.390625 C-1.31640625 13.3671875 -1.31640625 13.3671875 -3.48046875 13.390625 C-5.48046875 11.390625 -5.48046875 11.390625 -5.79296875 8.015625 C-5.41621013 3.64522495 -4.68629464 0.73799916 0 0 Z M0.51953125 3.390625 C-0.14046875 5.040625 -0.80046875 6.690625 -1.48046875 8.390625 C-0.49046875 8.720625 0.49953125 9.050625 1.51953125 9.390625 C1.84953125 7.410625 2.17953125 5.430625 2.51953125 3.390625 C1.85953125 3.390625 1.19953125 3.390625 0.51953125 3.390625 Z " fill="#3F4144" transform="translate(261.48046875,77.609375)"/>
<path d="M0 0 C3.46679688 0.04882812 3.46679688 0.04882812 6.93359375 0.09765625 C6.60359375 4.05765625 6.27359375 8.01765625 5.93359375 12.09765625 C-2.81640625 13.22265625 -2.81640625 13.22265625 -5.06640625 12.09765625 C-6.35418517 8.63055917 -6.15411697 7.30497251 -4.69140625 3.84765625 C-2.48724953 0.11754487 -2.48724953 0.11754487 0 0 Z M0.93359375 3.09765625 C0.27359375 3.75765625 -0.38640625 4.41765625 -1.06640625 5.09765625 C-1.06640625 6.41765625 -1.06640625 7.73765625 -1.06640625 9.09765625 C-0.07640625 9.09765625 0.91359375 9.09765625 1.93359375 9.09765625 C1.93359375 7.11765625 1.93359375 5.13765625 1.93359375 3.09765625 C1.60359375 3.09765625 1.27359375 3.09765625 0.93359375 3.09765625 Z " fill="#404144" transform="translate(214.06640625,77.90234375)"/>
<path d="M0 0 C-0.33 3.96 -0.66 7.92 -1 12 C-9.75 13.125 -9.75 13.125 -12 12 C-12.35294118 4.94117647 -12.35294118 4.94117647 -11.0625 1.5 C-7.6170637 -1.00577185 -4.165678 -0.24148858 0 0 Z M-6 3 C-8.2773501 5.81509993 -8.2773501 5.81509993 -8 9 C-7.01 9 -6.02 9 -5 9 C-5 7.02 -5 5.04 -5 3 C-5.33 3 -5.66 3 -6 3 Z " fill="#404244" transform="translate(422,79)"/>
<path d="M0 0 C0.08159574 4.16138263 -0.01751476 7.9472484 -1 12 C-2.45736087 12.19491452 -3.91594593 12.38069358 -5.375 12.5625 C-6.18710938 12.66691406 -6.99921875 12.77132812 -7.8359375 12.87890625 C-10 13 -10 13 -12 12 C-12.35294118 4.94117647 -12.35294118 4.94117647 -11.0625 1.5 C-7.70049852 -0.94509198 -4.01756473 -0.30321243 0 0 Z M-6 3 C-8.2773501 5.81509993 -8.2773501 5.81509993 -8 9 C-7.01 9 -6.02 9 -5 9 C-4.67 7.02 -4.34 5.04 -4 3 C-4.66 3 -5.32 3 -6 3 Z " fill="#404245" transform="translate(241,78)"/>
<path d="M0 0 C1.32 0 2.64 0 4 0 C4.66 0.99 5.32 1.98 6 3 C6.66 2.01 7.32 1.02 8 0 C9.32 0 10.64 0 12 0 C10.3341708 6.16356805 7.12194714 11.48259656 4 17 C2.35 17 0.7 17 -1 17 C-1 16.01 -1 15.02 -1 14 C-0.34 13.67 0.32 13.34 1 13 C0.67 8.71 0.34 4.42 0 0 Z " fill="#3F4244" transform="translate(150,78)"/>
<path d="M0 0 C2 2 2 2 2.25 5.4375 C2 9 2 9 0 12 C-3.375 12.9375 -3.375 12.9375 -7 13 C-9.5 11.4375 -9.5 11.4375 -11 9 C-10.93558662 5.84374437 -10.49895728 3.83159547 -8.875 1.125 C-5.91504133 -0.6509752 -3.36142192 -0.30558381 0 0 Z M-5 3 C-5.33 4.98 -5.66 6.96 -6 9 C-5.01 9 -4.02 9 -3 9 C-2.67 7.35 -2.34 5.7 -2 4 C-2.99 3.67 -3.98 3.34 -5 3 Z " fill="#3E4042" transform="translate(181,78)"/>
<path d="M0 0 C1.890625 0.32421875 1.890625 0.32421875 4 1 C7.68367272 6.9201883 7.92528744 13.17810807 7 20 C5.91338562 23.03849577 4.61387896 25.89875428 3.24609375 28.8203125 C1.081936 34.34264608 0.58176329 40.13026893 0 46 C-0.33 46 -0.66 46 -1 46 C-1.87987166 27.13164117 -1.87987166 27.13164117 2.94140625 18.28125 C5.30644637 13.18463217 3.26009518 8.52754515 1.4375 3.5 C0.963125 2.345 0.48875 1.19 0 0 Z " fill="#D6BE28" transform="translate(90,43)"/>
<path d="M0 0 C1.32 0 2.64 0 4 0 C3.67 2.97 3.34 5.94 3 9 C3.99 9 4.98 9 6 9 C6.33 6.03 6.66 3.06 7 0 C8.32 0 9.64 0 11 0 C11.08159574 4.16138263 10.98248524 7.9472484 10 12 C8.54263913 12.19491452 7.08405407 12.38069358 5.625 12.5625 C4.81289063 12.66691406 4.00078125 12.77132812 3.1640625 12.87890625 C1 13 1 13 -1 12 C-1.02698189 10.37509046 -1.04638757 8.75005367 -1.0625 7.125 C-1.07410156 6.22007813 -1.08570313 5.31515625 -1.09765625 4.3828125 C-1 2 -1 2 0 0 Z " fill="#404245" transform="translate(310,79)"/>
<path d="M0 0 C-0.33 0.99 -0.66 1.98 -1 3 C-4.0625 4.1875 -4.0625 4.1875 -7 5 C-7.33 7.64 -7.66 10.28 -8 13 C-6.02 13 -4.04 13 -2 13 C-2 13.99 -2 14.98 -2 16 C-7.37154989 17.22080679 -7.37154989 17.22080679 -10.3125 16.1875 C-12 15 -12 15 -13 13 C-13.70153846 5.86769231 -13.70153846 5.86769231 -10.625 2.0625 C-6.51799727 -1.16443072 -5.07112902 -0.99217742 0 0 Z " fill="#3E4043" transform="translate(295,75)"/>
<path d="M0 0 C0.99 0.33 1.98 0.66 3 1 C3.68282657 4.75554616 4 8.17117787 4 12 C4.99 12.33 5.98 12.66 7 13 C6.67 13.99 6.34 14.98 6 16 C6.33 16.66 6.66 17.32 7 18 C0.84765625 18.09765625 0.84765625 18.09765625 -1 18 C-1.33 17.67 -1.66 17.34 -2 17 C-2.99 17 -3.98 17 -5 17 C-5 15.33333333 -5 13.66666667 -5 12 C-2.525 12.495 -2.525 12.495 0 13 C-0.7425 12.3503125 -0.7425 12.3503125 -1.5 11.6875 C-3 10 -3 10 -3 7 C-2.34 6.67 -1.68 6.34 -1 6 C-1.020625 5.195625 -1.04125 4.39125 -1.0625 3.5625 C-1 1 -1 1 0 0 Z " fill="#48559D" transform="translate(44,55)"/>
<path d="M0 0 C1 1 1 1 1.3125 3.875 C1 7 1 7 -0.625 8.9375 C-3.78611281 10.35168205 -5.70458281 9.87877792 -9 9 C-9.33 8.67 -9.66 8.34 -10 8 C-9.6875 4.5 -9.6875 4.5 -9 1 C-6.01787087 -0.49106457 -3.28390342 -0.11941467 0 0 Z " fill="#CF1F2D" transform="translate(197,57)"/>
<path d="M0 0 C1.32 0 2.64 0 4 0 C4 0.99 4 1.98 4 3 C4.99 3 5.98 3 7 3 C7 3.99 7 4.98 7 6 C5.68 6 4.36 6 3 6 C3 7.98 3 9.96 3 12 C3.99 12 4.98 12 6 12 C6 12.99 6 13.98 6 15 C3.69 15 1.38 15 -1 15 C-1.84454356 11.62182575 -2.10844919 9.32534757 -1 6 C-1.66 5.67 -2.32 5.34 -3 5 C-2.67 4.34 -2.34 3.68 -2 3 C-1.34 3 -0.68 3 0 3 C0 2.01 0 1.02 0 0 Z " fill="#404245" transform="translate(403,76)"/>
<path d="M0 0 C0.33 0.66 0.66 1.32 1 2 C5.455 1.505 5.455 1.505 10 1 C10.33 1.66 10.66 2.32 11 3 C11.66 3 12.32 3 13 3 C12.49287967 6.71888239 11.88391785 9.73454239 10 13 C9.34 12.67 8.68 12.34 8 12 C8 11.34 8 10.68 8 10 C7.236875 9.938125 6.47375 9.87625 5.6875 9.8125 C3 9 3 9 1.1875 6.6875 C0 4 0 4 0 0 Z " fill="#D46D2E" transform="translate(80,57)"/>
<path d="M0 0 C-0.33 0.99 -0.66 1.98 -1 3 C-3.0625 3.6875 -3.0625 3.6875 -5 4 C-5.33 5.65 -5.66 7.3 -6 9 C-4.68 9 -3.36 9 -2 9 C-2.33 10.32 -2.66 11.64 -3 13 C-5.3431213 12.74438677 -7.67843403 12.40729228 -10 12 C-11.40457737 9.19084526 -11.24895157 7.11189466 -11 4 C-8.7771202 -1.27933953 -5.04466178 -0.33079749 0 0 Z " fill="#3F4144" transform="translate(342,79)"/>
<path d="M0 0 C2.28062828 3.42094242 2.21925007 4.68187222 2.125 8.6875 C2.10695313 9.68136719 2.08890625 10.67523438 2.0703125 11.69921875 C2.03550781 12.83810547 2.03550781 12.83810547 2 14 C1.34 14 0.68 14 0 14 C-0.33 15.32 -0.66 16.64 -1 18 C-2.98 17.67 -4.96 17.34 -7 17 C-6.01831926 14.3570134 -5.00905299 12.0143339 -3.5 9.625 C-1.72435174 6.51761555 -0.88103393 3.45636387 0 0 Z " fill="#7C2122" transform="translate(87,76)"/>
<path d="M0 0 C1.65 0 3.3 0 5 0 C4.34 5.28 3.68 10.56 3 16 C1.35 16.33 -0.3 16.66 -2 17 C-1.03644647 5.47835991 -1.03644647 5.47835991 0 0 Z " fill="#414346" transform="translate(224,73)"/>
<path d="M0 0 C0.33 0.99 0.66 1.98 1 3 C1.66 3 2.32 3 3 3 C3 3.99 3 4.98 3 6 C3.7425 6.0825 4.485 6.165 5.25 6.25 C8.51221354 7.1396946 9.80954878 8.48503749 12 11 C11 13 11 13 8.6875 13.875 C6 14 6 14 3.6875 12.1875 C2 10 2 10 2 8 C0.68 7.67 -0.64 7.34 -2 7 C-2 3 -2 3 0 0 Z " fill="#185974" transform="translate(102,17)"/>
<path d="M0 0 C2.75612848 2.75612848 2.94100784 4.82015673 3.1328125 8.65625 C3.12894531 10.06390625 3.12894531 10.06390625 3.125 11.5 C3.12757812 12.4384375 3.13015625 13.376875 3.1328125 14.34375 C3.01392868 16.7214263 2.67551722 18.72683096 2 21 C0.68 20.67 -0.64 20.34 -2 20 C-1.85953745 17.04132082 -1.71287776 14.08317736 -1.5625 11.125 C-1.52318359 10.28324219 -1.48386719 9.44148438 -1.44335938 8.57421875 C-1.40146484 7.76855469 -1.35957031 6.96289062 -1.31640625 6.1328125 C-1.27974854 5.38918457 -1.24309082 4.64555664 -1.20532227 3.87939453 C-1 2 -1 2 0 0 Z " fill="#BC6948" transform="translate(76,58)"/>
<path d="M0 0 C1.32 0 2.64 0 4 0 C3.85848172 2.0836309 3.71162064 4.16689938 3.5625 6.25 C3.48128906 7.41015625 3.40007812 8.5703125 3.31640625 9.765625 C3.06752213 12.30977376 2.71885058 14.55953248 2 17 C0.35 17 -1.3 17 -3 17 C-2.01 11.39 -1.02 5.78 0 0 Z " fill="#414346" transform="translate(396,74)"/>
<path d="M0 0 C1.65 0 3.3 0 5 0 C6.6290678 4.79137588 7.20577428 8.05632546 6 13 C3.69 13 1.38 13 -1 13 C-0.01 12.67 0.98 12.34 2 12 C1.67 9.03 1.34 6.06 1 3 C-1.97065509 3.34227572 -1.97065509 3.34227572 -5 4 C-5.33 4.66 -5.66 5.32 -6 6 C-6.66 4.68 -7.32 3.36 -8 2 C-5.36 1.67 -2.72 1.34 0 1 C0 0.67 0 0.34 0 0 Z " fill="#CC7B3E" transform="translate(88,48)"/>
<path d="M0 0 C2.46800047 1.15173355 4.04783565 2.04783565 6 4 C6 4.99 6 5.98 6 7 C6.62648438 6.69964844 7.25296875 6.39929688 7.8984375 6.08984375 C8.71570313 5.70957031 9.53296875 5.32929687 10.375 4.9375 C11.18710938 4.55464844 11.99921875 4.17179687 12.8359375 3.77734375 C13.55007812 3.52082031 14.26421875 3.26429687 15 3 C15.66 3.33 16.32 3.66 17 4 C2.90116995 11.30018473 2.90116995 11.30018473 -1.375 10.625 C-1.91125 10.41875 -2.4475 10.2125 -3 10 C-2.01 10 -1.02 10 0 10 C-0.185625 8.906875 -0.37125 7.81375 -0.5625 6.6875 C-1 3 -1 3 0 0 Z " fill="#1D6784" transform="translate(89,111)"/>
<path d="M0 0 C0.99 0 1.98 0 3 0 C3.10957031 1.05960937 3.21914062 2.11921875 3.33203125 3.2109375 C3.49147549 4.5990403 3.65167084 5.98705698 3.8125 7.375 C3.88275391 8.07367188 3.95300781 8.77234375 4.02539062 9.4921875 C4.24788292 11.34332338 4.61662522 13.17538205 5 15 C5.99 15.66 6.98 16.32 8 17 C8.1875 19.625 8.1875 19.625 8 22 C6.68 22 5.36 22 4 22 C4 20.68 4 19.36 4 18 C2.35 18 0.7 18 -1 18 C-0.01 17.67 0.98 17.34 2 17 C1.855625 16.05125 1.71125 15.1025 1.5625 14.125 C0.88802722 9.43259653 0.44623104 4.71865588 0 0 Z " fill="#862120" transform="translate(75,80)"/>
<path d="M0 0 C2 2 2 2 2.125 4.625 C2.08375 5.40875 2.0425 6.1925 2 7 C2.66 7 3.32 7 4 7 C4 7.66 4 8.32 4 9 C5.32 9.33 6.64 9.66 8 10 C8 10.66 8 11.32 8 12 C8.99 12.33 9.98 12.66 11 13 C10.34 13.66 9.68 14.32 9 15 C7.66666667 15 6.33333333 15 5 15 C5 13.35 5 11.7 5 10 C4.34 10 3.68 10 3 10 C3.27714844 10.97839844 3.55429687 11.95679688 3.83984375 12.96484375 C5.792079 19.98483098 7.48772826 26.70012769 8 34 C5.93158391 30.89737586 5.32440094 28.79414857 4.4921875 25.1953125 C4.22792969 24.05449219 3.96367188 22.91367187 3.69140625 21.73828125 C3.42199219 20.54589844 3.15257812 19.35351562 2.875 18.125 C2.59785156 16.94035156 2.32070313 15.75570312 2.03515625 14.53515625 C-0.17809115 4.86446443 -0.17809115 4.86446443 0 0 Z " fill="#BF9B95" transform="translate(53,32)"/>
<path d="M0 0 C1.32 0.66 2.64 1.32 4 2 C3.01 2.33 2.02 2.66 1 3 C1 3.99 1 4.98 1 6 C0.01 5.34 -0.98 4.68 -2 4 C-1.34 5.32 -0.68 6.64 0 8 C-0.66 8 -1.32 8 -2 8 C-2.2165625 8.8971875 -2.2165625 8.8971875 -2.4375 9.8125 C-2.8872439 11.56150404 -3.42892341 13.28677023 -4 15 C-5.32 15 -6.64 15 -8 15 C-7.67 15.66 -7.34 16.32 -7 17 C-8.98 16.34 -10.96 15.68 -13 15 C-9.25 12 -9.25 12 -7 12 C-6.814375 10.7934375 -6.814375 10.7934375 -6.625 9.5625 C-6.41875 8.716875 -6.2125 7.87125 -6 7 C-5.34 6.67 -4.68 6.34 -4 6 C-3.3162955 4.67532254 -2.65035814 3.34136367 -2 2 C-1.34 1.34 -0.68 0.68 0 0 Z " fill="#175A76" transform="translate(38,26)"/>
<path d="M0 0 C0.99 1.32 1.98 2.64 3 4 C3.33 3.01 3.66 2.02 4 1 C6.0625 0.3125 6.0625 0.3125 8 0 C8 1.98 8 3.96 8 6 C7.34 5.67 6.68 5.34 6 5 C5.01 7.97 4.02 10.94 3 14 C2.34 13.01 1.68 12.02 1 11 C0.34 11 -0.32 11 -1 11 C-1.33 8.36 -1.66 5.72 -2 3 C-1.34 3 -0.68 3 0 3 C0 2.01 0 1.02 0 0 Z " fill="#B05226" transform="translate(81,73)"/>
<path d="M0 0 C2.05078125 0.03255208 4.1015625 0.06510417 6.15234375 0.09765625 C5.15234375 3.09765625 5.15234375 3.09765625 2.15234375 5.09765625 C0.93353165 8.65437804 0.93353165 8.65437804 0.15234375 12.09765625 C-1.16765625 12.09765625 -2.48765625 12.09765625 -3.84765625 12.09765625 C-3.70728104 10.28472536 -3.56020736 8.47231195 -3.41015625 6.66015625 C-3.32894531 5.65082031 -3.24773437 4.64148438 -3.1640625 3.6015625 C-2.72716536 0.14414193 -2.72716536 0.14414193 0 0 Z " fill="#3F4144" transform="translate(325.84765625,78.90234375)"/>
<path d="M0 0 C2.05078125 0.03255208 4.1015625 0.06510417 6.15234375 0.09765625 C5.15234375 3.09765625 5.15234375 3.09765625 2.15234375 5.09765625 C0.93353165 8.65437804 0.93353165 8.65437804 0.15234375 12.09765625 C-1.16765625 12.09765625 -2.48765625 12.09765625 -3.84765625 12.09765625 C-3.70728104 10.28472536 -3.56020736 8.47231195 -3.41015625 6.66015625 C-3.32894531 5.65082031 -3.24773437 4.64148438 -3.1640625 3.6015625 C-2.72716536 0.14414193 -2.72716536 0.14414193 0 0 Z " fill="#404245" transform="translate(272.84765625,77.90234375)"/>
<path d="M0 0 C2.64 0 5.28 0 8 0 C8 0.99 8 1.98 8 3 C6.68 3.33 5.36 3.66 4 4 C3.67 6.64 3.34 9.28 3 12 C1.68 12 0.36 12 -1 12 C-1.08159574 7.83861737 -0.98248524 4.0527516 0 0 Z " fill="#404245" transform="translate(163,78)"/>
<path d="M0 0 C0.33 0 0.66 0 1 0 C1.33 1.98 1.66 3.96 2 6 C2.33 6 2.66 6 3 6 C3.22201613 8.9162118 3.42808498 11.83207744 3.625 14.75 C3.68945312 15.575 3.75390625 16.4 3.8203125 17.25 C3.871875 18.04921875 3.9234375 18.8484375 3.9765625 19.671875 C4.02893066 20.4050293 4.08129883 21.13818359 4.13525391 21.89355469 C3.97767085 24.34775441 3.22264839 25.88853213 2 28 C1.86722656 27.21753906 1.73445313 26.43507813 1.59765625 25.62890625 C1.42105469 24.61699219 1.24445313 23.60507813 1.0625 22.5625 C0.80146484 21.04849609 0.80146484 21.04849609 0.53515625 19.50390625 C0.25248903 17.0712562 0.25248903 17.0712562 -1 16 C-0.909084 13.29891496 -0.76259234 10.63069689 -0.5625 7.9375 C-0.51029297 7.17888672 -0.45808594 6.42027344 -0.40429688 5.63867188 C-0.27424165 3.75878278 -0.13771962 1.87934315 0 0 Z " fill="#C27F42" transform="translate(64,50)"/>
<path d="M0 0 C0.33 0 0.66 0 1 0 C1 1.98 1 3.96 1 6 C1.94875 5.95875 2.8975 5.9175 3.875 5.875 C7 6 7 6 9 8 C8.67 8.99 8.34 9.98 8 11 C7.01 10.67 6.02 10.34 5 10 C5 10.66 5 11.32 5 12 C5.66 12.33 6.32 12.66 7 13 C4.36 13.66 1.72 14.32 -1 15 C-0.67 10.05 -0.34 5.1 0 0 Z " fill="#DAB995" transform="translate(74,20)"/>
<path d="M0 0 C0.99 0.33 1.98 0.66 3 1 C2.01 1.495 2.01 1.495 1 2 C1.144375 2.64066406 1.28875 3.28132813 1.4375 3.94140625 C2.53470562 9.05407965 3.43588772 13.76934742 3 19 C2.34 19.66 1.68 20.32 1 21 C-0.32 21 -1.64 21 -3 21 C-2.505 19.515 -2.505 19.515 -2 18 C-1.34 17.67 -0.68 17.34 0 17 C-0.66 16.01 -1.32 15.02 -2 14 C-1.7578125 10.64453125 -1.7578125 10.64453125 -1.125 6.8125 C-0.92132813 5.54019531 -0.71765625 4.26789063 -0.5078125 2.95703125 C-0.34023437 1.98121094 -0.17265625 1.00539063 0 0 Z " fill="#AF4A42" transform="translate(74,78)"/>
<path d="M0 0 C2 2 2 2 2 5 C1.34 5 0.68 5 0 5 C0.33 7.64 0.66 10.28 1 13 C1.99 12.67 2.98 12.34 4 12 C4.20140476 15.62528568 3.85776765 17.86501708 2 21 C2.99 21.99 3.98 22.98 5 24 C3.0625 24.5625 3.0625 24.5625 1 25 C-2.08239122 21.91760878 -1.80841851 12.33412071 -2 8 C-1.66631958 5.00511528 -1.06173699 2.83129864 0 0 Z " fill="#AB5E2E" transform="translate(79,71)"/>
<path d="M0 0 C0.33 0 0.66 0 1 0 C3.13480153 7.73865554 3.20483028 15.00023956 3 23 C1.01953125 22.06640625 1.01953125 22.06640625 -1 20 C-1.55039762 16.97475387 -1.42029779 14.00135275 -1.3125 10.9375 C-1.30283203 10.10927734 -1.29316406 9.28105469 -1.28320312 8.42773438 C-1.16924662 2.33849324 -1.16924662 2.33849324 0 0 Z " fill="#6B1F20" transform="translate(68,68)"/>
<path d="M0 0 C1.010625 0.0825 2.02125 0.165 3.0625 0.25 C3.7225 1.24 4.3825 2.23 5.0625 3.25 C3.4125 3.58 1.7625 3.91 0.0625 4.25 C0.0625 4.91 0.0625 5.57 0.0625 6.25 C-3.2375 6.25 -6.5375 6.25 -9.9375 6.25 C-10.2675 4.93 -10.5975 3.61 -10.9375 2.25 C-9.803125 2.105625 -8.66875 1.96125 -7.5 1.8125 C-4.00178848 1.26015081 -3.36058678 0.28600739 0 0 Z " fill="#CCAEA0" transform="translate(80.9375,46.75)"/>
<path d="M0 0 C0.99 0 1.98 0 3 0 C3.13277344 0.78246094 3.26554687 1.56492187 3.40234375 2.37109375 C3.57894531 3.38300781 3.75554687 4.39492187 3.9375 5.4375 C4.11152344 6.44683594 4.28554687 7.45617187 4.46484375 8.49609375 C4.74751097 10.9287438 4.74751097 10.9287438 6 12 C6.35897436 18.46153846 6.35897436 18.46153846 4 22 C3.32810344 19.08444885 2.66230692 16.16773049 2 13.25 C1.80921875 12.425 1.6184375 11.6 1.421875 10.75 C1.24140625 9.95078125 1.0609375 9.1515625 0.875 8.328125 C0.70742188 7.5949707 0.53984375 6.86181641 0.3671875 6.10644531 C0 4 0 4 0 0 Z " fill="#E7E4E4" transform="translate(62,67)"/>
<path d="M0 0 C0.33 2.31 0.66 4.62 1 7 C-2.05263664 7.98120464 -3.94736336 7.98120464 -7 7 C-7.33 5.68 -7.66 4.36 -8 3 C-7.34 3 -6.68 3 -6 3 C-6 2.34 -6 1.68 -6 1 C-4 0 -4 0 0 0 Z " fill="#982320" transform="translate(89,51)"/>
<path d="M0 0 C2 0.25 2 0.25 4 1 C4.33 1.99 4.66 2.98 5 4 C5.66 4 6.32 4 7 4 C7 4.66 7 5.32 7 6 C6.34 6 5.68 6 5 6 C4.67 7.32 4.34 8.64 4 10 C2.68 9.67 1.36 9.34 0 9 C0.99 9 1.98 9 3 9 C3 8.34 3 7.68 3 7 C1.68 7 0.36 7 -1 7 C-1.04254356 5.00045254 -1.04080783 2.99958364 -1 1 C-0.67 0.67 -0.34 0.34 0 0 Z " fill="#146586" transform="translate(123,54)"/>
<path d="M0 0 C1.875 0 1.875 0 4 1 C5.06652192 3.30368736 6.06421005 5.64018187 7 8 C8.53951047 9.88029239 8.53951047 9.88029239 10 11 C8.35 11 6.7 11 5 11 C5 10.34 5 9.68 5 9 C3.68 8.67 2.36 8.34 1 8 C1 7.34 1 6.68 1 6 C0.34 6 -0.32 6 -1 6 C-1.042721 4.33388095 -1.04063832 2.66617115 -1 1 C-0.67 0.67 -0.34 0.34 0 0 Z " fill="#E7DFDC" transform="translate(56,33)"/>
<path d="M0 0 C0.33 0.66 0.66 1.32 1 2 C1.66 2 2.32 2 3 2 C2.67 3.32 2.34 4.64 2 6 C0.68 5.34 -0.64 4.68 -2 4 C-1.67 4.99 -1.34 5.98 -1 7 C-1.66 7.66 -2.32 8.32 -3 9 C-5.125 8.625 -5.125 8.625 -7 8 C-6.875 6.25 -6.875 6.25 -6 4 C-2.9375 1.75 -2.9375 1.75 0 0 Z " fill="#185873" transform="translate(48,18)"/>
<path d="M0 0 C1.1446875 0.2784375 1.1446875 0.2784375 2.3125 0.5625 C5.08967375 1.22819173 5.08967375 1.22819173 8 0 C7.34 2.31 6.68 4.62 6 7 C3.69 6.34 1.38 5.68 -1 5 C-0.67 3.35 -0.34 1.7 0 0 Z " fill="#18556E" transform="translate(87,13)"/>
<path d="M0 0 C0.66 0.33 1.32 0.66 2 1 C-1.95825209 5.82485166 -5.59160025 9.83410746 -11 13 C-8.52241061 7.42542386 -4.84184017 3.63138013 0 0 Z " fill="#287694" transform="translate(38,17)"/>
<path d="M0 0 C2.125 0.375 2.125 0.375 4 1 C4 2.98 4 4.96 4 7 C2.02 7 0.04 7 -2 7 C-2.125 4.625 -2.125 4.625 -2 2 C-1.34 1.34 -0.68 0.68 0 0 Z " fill="#C3C7DC" transform="translate(54,64)"/>
<path d="M0 0 C2.4375 0.6875 2.4375 0.6875 5 2 C5.8125 4.625 5.8125 4.625 6 7 C8.97 7.33 11.94 7.66 15 8 C15 8.33 15 8.66 15 9 C11.7 9.33 8.4 9.66 5 10 C3 6 3 6 3 3 C2.01 3 1.02 3 0 3 C0 2.01 0 1.02 0 0 Z " fill="#C87E51" transform="translate(65,45)"/>
<path d="M0 0 C2.39763185 2.39763185 2.34280586 3.33273498 2.625 6.625 C2.69976562 7.44226563 2.77453125 8.25953125 2.8515625 9.1015625 C2.90054688 9.72804688 2.94953125 10.35453125 3 11 C1.68 11.33 0.36 11.66 -1 12 C-1.02698189 10.37509046 -1.04638757 8.75005367 -1.0625 7.125 C-1.07410156 6.22007813 -1.08570312 5.31515625 -1.09765625 4.3828125 C-1 2 -1 2 0 0 Z " fill="#ED773E" transform="translate(76,58)"/>
<path d="M0 0 C2.64 0.99 5.28 1.98 8 3 C7.4140625 9.15234375 7.4140625 9.15234375 7 11 C6.01 11.495 6.01 11.495 5 12 C5 9.69 5 7.38 5 5 C3.02 4.34 1.04 3.68 -1 3 C-0.67 2.01 -0.34 1.02 0 0 Z " fill="#9E3627" transform="translate(60,45)"/>
<path d="M0 0 C2.64 0.33 5.28 0.66 8 1 C8.33 1.99 8.66 2.98 9 4 C2.25 5.125 2.25 5.125 0 4 C0 2.68 0 1.36 0 0 Z " fill="#ECE9D0" transform="translate(87,28)"/>
<path d="M0 0 C0.66 0 1.32 0 2 0 C2.66 0.66 3.32 1.32 4 2 C4.99 1.67 5.98 1.34 7 1 C7 3.31 7 5.62 7 8 C6.34 8 5.68 8 5 8 C5 7.01 5 6.02 5 5 C4.01 5 3.02 5 2 5 C1.67 5.66 1.34 6.32 1 7 C0.34 7 -0.32 7 -1 7 C-0.67 4.69 -0.34 2.38 0 0 Z " fill="#1B485B" transform="translate(78,9)"/>
<path d="M0 0 C0.99 0.33 1.98 0.66 3 1 C3.62457273 4.43515002 4 7.49064814 4 11 C2.0625 10.5 2.0625 10.5 0 9 C-0.76128 6.26734566 -0.86331619 3.87035995 -1 1 C-0.67 0.67 -0.34 0.34 0 0 Z " fill="#616CA9" transform="translate(44,55)"/>
<path d="M0 0 C2 2 2 2 2 5 C1.34 5 0.68 5 0 5 C-0.33 5.66 -0.66 6.32 -1 7 C-2.32 6.67 -3.64 6.34 -5 6 C-4.67 7.65 -4.34 9.3 -4 11 C-4.66 11 -5.32 11 -6 11 C-6.33 8.03 -6.66 5.06 -7 2 C-6.67 2.99 -6.34 3.98 -6 5 C-4.68 4.34 -3.36 3.68 -2 3 C-2 2.34 -2 1.68 -2 1 C-1.34 0.67 -0.68 0.34 0 0 Z " fill="#B9815C" transform="translate(81,29)"/>
<path d="M0 0 C1.32 0.66 2.64 1.32 4 2 C3.01 2.33 2.02 2.66 1 3 C1 3.99 1 4.98 1 6 C0.01 5.34 -0.98 4.68 -2 4 C-1.34 5.32 -0.68 6.64 0 8 C-0.66 8 -1.32 8 -2 8 C-2.33 8.99 -2.66 9.98 -3 11 C-3.99 9.68 -4.98 8.36 -6 7 C-5.34 6.67 -4.68 6.34 -4 6 C-3.3162955 4.67532254 -2.65035814 3.34136367 -2 2 C-1.34 1.34 -0.68 0.68 0 0 Z " fill="#1C4658" transform="translate(38,26)"/>
<path d="M0 0 C0.33 0 0.66 0 1 0 C0.67 3.63 0.34 7.26 0 11 C-2 10 -4 9 -6 8 C-5.67 7.01 -5.34 6.02 -5 5 C-3.66666667 4.33333333 -2.33333333 3.66666667 -1 3 C-0.67 2.01 -0.34 1.02 0 0 Z " fill="#EFC48D" transform="translate(74,35)"/>
<path d="M0 0 C1.98 0 3.96 0 6 0 C5.01 0.495 5.01 0.495 4 1 C3.64587656 2.32796291 3.31478446 3.66216607 3 5 C2.01 6.485 2.01 6.485 1 8 C0.34 8 -0.32 8 -1 8 C-1.66 6.02 -2.32 4.04 -3 2 C-2.01 2.495 -2.01 2.495 -1 3 C-0.67 2.01 -0.34 1.02 0 0 Z " fill="#185670" transform="translate(62,12)"/>
<path d="M0 0 C1.9375 0.3125 1.9375 0.3125 4 1 C4.33 1.99 4.66 2.98 5 4 C3.68 4.33 2.36 4.66 1 5 C1 6.65 1 8.3 1 10 C-1.15377564 7.37801226 -2.40072174 5.35595828 -3 2 C-1.68 2.33 -0.36 2.66 1 3 C0.67 2.01 0.34 1.02 0 0 Z " fill="#C96C2E" transform="translate(84,69)"/>
<path d="M0 0 C1.9375 0.8125 1.9375 0.8125 4 2 C4.33 2.99 4.66 3.98 5 5 C4.01 5.495 4.01 5.495 3 6 C3 5.34 3 4.68 3 4 C0.36 4 -2.28 4 -5 4 C-5.33 4.66 -5.66 5.32 -6 6 C-6.66 4.68 -7.32 3.36 -8 2 C-5.36 1.67 -2.72 1.34 0 1 C0 0.67 0 0.34 0 0 Z " fill="#DA8D64" transform="translate(88,48)"/>
<path d="M0 0 C0.99 0 1.98 0 3 0 C3.66 0.66 4.32 1.32 5 2 C5.66 1.34 6.32 0.68 7 0 C6.67 1.98 6.34 3.96 6 6 C5.38125 5.814375 4.7625 5.62875 4.125 5.4375 C1.95839822 4.76313824 1.95839822 4.76313824 0 6 C-0.38218767 4.34385343 -0.71395102 2.67542976 -1 1 C-0.67 0.67 -0.34 0.34 0 0 Z " fill="#DB8A52" transform="translate(76,41)"/>
<path d="M0 0 C0.99 0 1.98 0 3 0 C3.33 3.3 3.66 6.6 4 10 C3.01 9.67 2.02 9.34 1 9 C0.67 6.03 0.34 3.06 0 0 Z " fill="#EEEBE8" transform="translate(62,67)"/>
<path d="M0 0 C0.99 0 1.98 0 3 0 C3.33 2.97 3.66 5.94 4 9 C2.68 9.33 1.36 9.66 0 10 C0 6.7 0 3.4 0 0 Z " fill="#999119" transform="translate(112,55)"/>
<path d="M0 0 C0.99 0.33 1.98 0.66 3 1 C2.34 1 1.68 1 1 1 C1 1.99 1 2.98 1 4 C2.32 3.67 3.64 3.34 5 3 C5.33 4.98 5.66 6.96 6 9 C5.67 8.34 5.34 7.68 5 7 C3.68 7.33 2.36 7.66 1 8 C0.34 5.69 -0.32 3.38 -1 1 C-0.67 0.67 -0.34 0.34 0 0 Z " fill="#194F66" transform="translate(120,44)"/>
<path d="M0 0 C0.66 0 1.32 0 2 0 C2.66 2.31 3.32 4.62 4 7 C1.69 7 -0.62 7 -3 7 C-1.125 2.25 -1.125 2.25 0 0 Z " fill="#1B485C" transform="translate(68,113)"/>
<path d="M0 0 C0.66 0 1.32 0 2 0 C2.66 0.66 3.32 1.32 4 2 C4.99 1.67 5.98 1.34 7 1 C6.67 3.31 6.34 5.62 6 8 C5.34 8 4.68 8 4 8 C4.33 6.68 4.66 5.36 5 4 C4.01 4.33 3.02 4.66 2 5 C2 4.34 2 3.68 2 3 C1.34 3 0.68 3 0 3 C-0.33 3.99 -0.66 4.98 -1 6 C-0.67 4.02 -0.34 2.04 0 0 Z " fill="#1D3B49" transform="translate(57,111)"/>
<path d="M0 0 C2.7972908 2.06756277 3.02692273 3.14440371 3.6875 6.6875 C3.790625 7.780625 3.89375 8.87375 4 10 C2.68 9.67 1.36 9.34 0 9 C-0.84454356 5.62182575 -1.10844919 3.32534757 0 0 Z " fill="#DDC42A" transform="translate(83,30)"/>
<path d="M0 0 C1.65 0.33 3.3 0.66 5 1 C5 2.98 5 4.96 5 7 C2.69 6.34 0.38 5.68 -2 5 C-1.34 4.67 -0.68 4.34 0 4 C0 2.68 0 1.36 0 0 Z " fill="#05A2DF" transform="translate(57,114)"/>
<path d="M0 0 C0.99 0.33 1.98 0.66 3 1 C3 2.65 3 4.3 3 6 C2.34 5.67 1.68 5.34 1 5 C1.33 4.01 1.66 3.02 2 2 C1.34 2 0.68 2 0 2 C-0.33 3.32 -0.66 4.64 -1 6 C-1.99 6 -2.98 6 -4 6 C-4 4.35 -4 2.7 -4 1 C-3.01 1 -2.02 1 -1 1 C-0.67 0.67 -0.34 0.34 0 0 Z " fill="#1A495C" transform="translate(24,58)"/>
<path d="M0 0 C1.65 0.33 3.3 0.66 5 1 C4.34 2.65 3.68 4.3 3 6 C1.68 5.34 0.36 4.68 -1 4 C-0.67 2.68 -0.34 1.36 0 0 Z " fill="#18546E" transform="translate(95,16)"/>
<path d="M0 0 C0.66 0 1.32 0 2 0 C2 0.99 2 1.98 2 3 C3.32 3.33 4.64 3.66 6 4 C2.37 4 -1.26 4 -5 4 C-4.67 3.01 -4.34 2.02 -4 1 C-2.02 1.495 -2.02 1.495 0 2 C0 1.34 0 0.68 0 0 Z " fill="#02AAEB" transform="translate(72,118)"/>
<path d="M0 0 C0.99 0.99 1.98 1.98 3 3 C2.67 3.99 2.34 4.98 2 6 C2.99 6.99 3.98 7.98 5 9 C3.0625 9.5625 3.0625 9.5625 1 10 C0 9 0 9 -0.09765625 6.93359375 C-0.08605469 6.10988281 -0.07445313 5.28617187 -0.0625 4.4375 C-0.05347656 3.61121094 -0.04445313 2.78492187 -0.03515625 1.93359375 C-0.02355469 1.29550781 -0.01195313 0.65742187 0 0 Z " fill="#C03C2E" transform="translate(79,86)"/>
<path d="M0 0 C0.66 0 1.32 0 2 0 C3.32 2.97 4.64 5.94 6 9 C5.34 9.66 4.68 10.32 4 11 C3.67 10.01 3.34 9.02 3 8 C2.34 8 1.68 8 1 8 C0.67 5.36 0.34 2.72 0 0 Z " fill="#9E3D21" transform="translate(79,76)"/>
<path d="M0 0 C1.32 0.33 2.64 0.66 4 1 C5.87679987 4.37823976 6.21849583 7.17632299 6 11 C5.67 10.01 5.34 9.02 5 8 C4.34 8 3.68 8 3 8 C2.01 5.36 1.02 2.72 0 0 Z " fill="#E0CB21" transform="translate(90,43)"/>
<path d="M0 0 C2.475 0.495 2.475 0.495 5 1 C5 4.63 5 8.26 5 12 C4.67 12 4.34 12 4 12 C3.71125 10.7625 3.4225 9.525 3.125 8.25 C2.38665206 5.27551258 1.55525067 2.666144 0 0 Z " fill="#EAD516" transform="translate(82,27)"/>
<path d="M0 0 C0.33 0 0.66 0 1 0 C1 3.63 1 7.26 1 11 C0.01 11 -0.98 11 -2 11 C-3 9 -3 9 -2.44140625 6.8359375 C-2.15136719 6.02382812 -1.86132812 5.21171875 -1.5625 4.375 C-1.27503906 3.55773437 -0.98757812 2.74046875 -0.69140625 1.8984375 C-0.46324219 1.27195312 -0.23507813 0.64546875 0 0 Z " fill="#871D1C" transform="translate(86,78)"/>
<path d="M0 0 C0.99 0.33 1.98 0.66 3 1 C2.01 1.495 2.01 1.495 1 2 C1.33 2.99 1.66 3.98 2 5 C2.12781786 7.67394964 2.04391871 10.32095857 2 13 C0.4375 11.5625 0.4375 11.5625 -1 9 C-0.96846324 5.94619073 -0.53266629 3.00346778 0 0 Z " fill="#AE3130" transform="translate(74,78)"/>
<path d="M0 0 C0 0.66 0 1.32 0 2 C0.66 2 1.32 2 2 2 C1.67 2.99 1.34 3.98 1 5 C0.34 4.67 -0.32 4.34 -1 4 C-1.33 4.99 -1.66 5.98 -2 7 C-2.66 6.67 -3.32 6.34 -4 6 C-3.34 4.68 -2.68 3.36 -2 2 C-2.99 1.67 -3.98 1.34 -5 1 C-2 0 -2 0 0 0 Z " fill="#C45C36" transform="translate(83,37)"/>
<path d="M0 0 C1.98 0 3.96 0 6 0 C6 0.99 6 1.98 6 3 C4.35 3.33 2.7 3.66 1 4 C0.67 2.68 0.34 1.36 0 0 Z " fill="#B9B1B4" transform="translate(70,49)"/>
<path d="M0 0 C1.98 0.495 1.98 0.495 4 1 C4 2.32 4 3.64 4 5 C2.35 4.67 0.7 4.34 -1 4 C-0.67 2.68 -0.34 1.36 0 0 Z " fill="#175974" transform="translate(70,11)"/>
<path d="M0 0 C0.99 0 1.98 0 3 0 C3 1.65 3 3.3 3 5 C1.68 5 0.36 5 -1 5 C-0.67 3.35 -0.34 1.7 0 0 Z " fill="#975830" transform="translate(80,97)"/>
<path d="M0 0 C1.32 0 2.64 0 4 0 C4 0.99 4 1.98 4 3 C3.34 3 2.68 3 2 3 C1.67 3.99 1.34 4.98 1 6 C0.34 5.67 -0.32 5.34 -1 5 C-0.67 3.35 -0.34 1.7 0 0 Z " fill="#B3AA14" transform="translate(106,84)"/>
<path d="M0 0 C1.32 1.32 2.64 2.64 4 4 C3.67 4.66 3.34 5.32 3 6 C1.33333333 6 -0.33333333 6 -2 6 C-1.34 4.02 -0.68 2.04 0 0 Z " fill="#E38940" transform="translate(87,40)"/>
<path d="M0 0 C1.32 0.99 2.64 1.98 4 3 C3.67 3.66 3.34 4.32 3 5 C0.4375 5.625 0.4375 5.625 -2 6 C-1.49396008 3.83125748 -1.00016187 2.00032373 0 0 Z " fill="#156587" transform="translate(110,25)"/>
<path d="M0 0 C0.99 0.33 1.98 0.66 3 1 C2.125 5.75 2.125 5.75 1 8 C0.34 8 -0.32 8 -1 8 C-0.67 5.36 -0.34 2.72 0 0 Z " fill="#948C19" transform="translate(110,75)"/>
<path d="M0 0 C0 1.98 0 3.96 0 6 C-1.33333333 6 -2.66666667 6 -4 6 C-4 4.35 -4 2.7 -4 1 C-2 0 -2 0 0 0 Z " fill="#A25C31" transform="translate(89,73)"/>
<path d="M0 0 C-0.66 1.65 -1.32 3.3 -2 5 C-4.475 4.01 -4.475 4.01 -7 3 C-6.67 2.34 -6.34 1.68 -6 1 C-3.911361 0.32624548 -2.19636905 0 0 0 Z " fill="#C35829" transform="translate(93,60)"/>
<path d="M0 0 C0.66 0 1.32 0 2 0 C2 1.65 2 3.3 2 5 C0.02 5.33 -1.96 5.66 -4 6 C-3.01 5.67 -2.02 5.34 -1 5 C-0.67 3.35 -0.34 1.7 0 0 Z " fill="#E28C3F" transform="translate(91,55)"/>
<path d="M0 0 C2.1875 0.3125 2.1875 0.3125 4 1 C2.75 2.5625 2.75 2.5625 1 4 C-1.1875 3.6875 -1.1875 3.6875 -3 3 C-1.75 1.4375 -1.75 1.4375 0 0 Z " fill="#BC3633" transform="translate(85,51)"/>
<path d="M0 0 C0.66 0 1.32 0 2 0 C1.34 2.31 0.68 4.62 0 7 C-1.32 6.34 -2.64 5.68 -4 5 C-3.34 5 -2.68 5 -2 5 C-1.7834375 4.0409375 -1.7834375 4.0409375 -1.5625 3.0625 C-1 1 -1 1 0 0 Z " fill="#166281" transform="translate(93,13)"/>
<path d="M0 0 C-0.33 0.99 -0.66 1.98 -1 3 C-1.66 3 -2.32 3 -3 3 C-3 2.34 -3 1.68 -3 1 C-3.66 1 -4.32 1 -5 1 C-5.33 1.66 -5.66 2.32 -6 3 C-6.33 2.01 -6.66 1.02 -7 0 C-3.86650268 -1.04449911 -3.01031744 -0.93423645 0 0 Z " fill="#E6A16E" transform="translate(70,44)"/>
<path d="M0 0 C0.66 0 1.32 0 2 0 C1.67 1.98 1.34 3.96 1 6 C0.01 5.67 -0.98 5.34 -2 5 C-1.125 1.125 -1.125 1.125 0 0 Z " fill="#DA7237" transform="translate(85,40)"/>
</svg>
